<svg id="visual" viewBox="0 0 1920 1200" width="1920" height="1200" xmlns="http://www.w3.org/2000/svg" xmlns:xlink="http://www.w3.org/1999/xlink" version="1.1"><path d="M0 289L29.2 289C58.3 289 116.7 289 174.8 277C233 265 291 241 349.2 217C407.3 193 465.7 169 523.8 169C582 169 640 193 698.2 219C756.3 245 814.7 273 872.8 263C931 253 989 205 1047.2 185C1105.3 165 1163.7 173 1221.8 179C1280 185 1338 189 1396.2 187C1454.3 185 1512.7 177 1570.8 183C1629 189 1687 209 1745.2 221C1803.3 233 1861.7 237 1890.8 239L1920 241L1920 0L1890.8 0C1861.7 0 1803.3 0 1745.2 0C1687 0 1629 0 1570.8 0C1512.7 0 1454.3 0 1396.2 0C1338 0 1280 0 1221.8 0C1163.7 0 1105.3 0 1047.2 0C989 0 931 0 872.8 0C814.7 0 756.3 0 698.2 0C640 0 582 0 523.8 0C465.7 0 407.3 0 349.2 0C291 0 233 0 174.8 0C116.7 0 58.3 0 29.2 0L0 0Z" fill="#6c9565"></path><path d="M0 469L29.2 467C58.3 465 116.7 461 174.8 451C233 441 291 425 349.2 397C407.3 369 465.7 329 523.8 317C582 305 640 321 698.2 355C756.3 389 814.7 441 872.8 451C931 461 989 429 1047.2 393C1105.3 357 1163.7 317 1221.8 301C1280 285 1338 293 1396.2 293C1454.3 293 1512.7 285 1570.8 299C1629 313 1687 349 1745.2 377C1803.3 405 1861.7 425 1890.8 435L1920 445L1920 239L1890.8 237C1861.7 235 1803.3 231 1745.2 219C1687 207 1629 187 1570.8 181C1512.7 175 1454.3 183 1396.2 185C1338 187 1280 183 1221.8 177C1163.7 171 1105.3 163 1047.2 183C989 203 931 251 872.8 261C814.7 271 756.3 243 698.2 217C640 191 582 167 523.8 167C465.7 167 407.3 191 349.2 215C291 239 233 263 174.8 275C116.7 287 58.3 287 29.2 287L0 287Z" fill="#3f6b39"></path><path d="M0 661L29.2 661C58.3 661 116.7 661 174.8 663C233 665 291 669 349.2 659C407.3 649 465.7 625 523.8 653C582 681 640 761 698.2 801C756.3 841 814.7 841 872.8 837C931 833 989 825 1047.2 811C1105.3 797 1163.7 777 1221.8 735C1280 693 1338 629 1396.2 607C1454.3 585 1512.7 605 1570.8 649C1629 693 1687 761 1745.2 775C1803.3 789 1861.7 749 1890.8 729L1920 709L1920 443L1890.8 433C1861.7 423 1803.3 403 1745.2 375C1687 347 1629 311 1570.8 297C1512.7 283 1454.3 291 1396.2 291C1338 291 1280 283 1221.8 299C1163.7 315 1105.3 355 1047.2 391C989 427 931 459 872.8 449C814.7 439 756.3 387 698.2 353C640 319 582 303 523.8 315C465.7 327 407.3 367 349.2 395C291 423 233 439 174.8 449C116.7 459 58.3 463 29.2 465L0 467Z" fill="#31542e"></path><path d="M0 1033L29.2 1045C58.3 1057 116.7 1081 174.8 1095C233 1109 291 1113 349.2 1115C407.3 1117 465.7 1117 523.8 1111C582 1105 640 1093 698.2 1085C756.3 1077 814.7 1073 872.8 1075C931 1077 989 1085 1047.2 1073C1105.3 1061 1163.7 1029 1221.8 1023C1280 1017 1338 1037 1396.2 1049C1454.3 1061 1512.7 1065 1570.8 1075C1629 1085 1687 1101 1745.2 1091C1803.3 1081 1861.7 1045 1890.8 1027L1920 1009L1920 707L1890.8 727C1861.7 747 1803.3 787 1745.2 773C1687 759 1629 691 1570.8 647C1512.7 603 1454.3 583 1396.2 605C1338 627 1280 691 1221.8 733C1163.7 775 1105.3 795 1047.2 809C989 823 931 831 872.8 835C814.7 839 756.3 839 698.2 799C640 759 582 679 523.8 651C465.7 623 407.3 647 349.2 657C291 667 233 663 174.8 661C116.7 659 58.3 659 29.2 659L0 659Z" fill="#3f6b39"></path><path d="M0 1201L29.2 1201C58.3 1201 116.7 1201 174.8 1201C233 1201 291 1201 349.2 1201C407.3 1201 465.7 1201 523.8 1201C582 1201 640 1201 698.2 1201C756.3 1201 814.7 1201 872.8 1201C931 1201 989 1201 1047.2 1201C1105.3 1201 1163.7 1201 1221.8 1201C1280 1201 1338 1201 1396.2 1201C1454.3 1201 1512.7 1201 1570.8 1201C1629 1201 1687 1201 1745.2 1201C1803.3 1201 1861.7 1201 1890.8 1201L1920 1201L1920 1007L1890.8 1025C1861.7 1043 1803.3 1079 1745.2 1089C1687 1099 1629 1083 1570.8 1073C1512.7 1063 1454.3 1059 1396.2 1047C1338 1035 1280 1015 1221.8 1021C1163.7 1027 1105.3 1059 1047.2 1071C989 1083 931 1075 872.8 1073C814.7 1071 756.3 1075 698.2 1083C640 1091 582 1103 523.8 1109C465.7 1115 407.3 1115 349.2 1113C291 1111 233 1107 174.8 1093C116.7 1079 58.3 1055 29.2 1043L0 1031Z" fill="#6c9565"></path></svg>